%
M48
M72
T01C0.0320
T02C0.0400
T03C0.1102
%
T01
X2150Y4275
X2150Y5525
X2150Y6525
X2150Y7525
X2150Y8525
X5150Y8525
X5150Y7525
X5150Y6525
X5150Y5525
X6400Y4775
X6400Y6275
X6400Y7775
X6400Y9275
X6400Y10650
X9400Y12150
X10400Y12150
X11400Y12150
X12400Y12150
X13400Y12150
X14400Y13150
X15900Y13150
X15900Y12150
X14400Y10650
X13150Y9900
X14400Y9150
X14400Y7650
X13150Y5900
X11650Y5900
X10400Y6275
X10400Y4775
X10400Y2525
X12400Y2525
X14400Y2525
X16400Y1525
X16400Y3525
X16400Y5525
X19275Y5525
X21275Y5275
X22650Y5275
X22650Y6400
X23650Y6400
X24025Y5275
X28650Y5400
X28650Y1400
X24025Y1275
X22650Y1275
X21275Y1275
X19275Y1525
X19275Y3525
X18400Y7650
X18400Y9150
X18400Y10650
X19650Y12150
X20650Y12150
X21650Y12150
X22650Y12150
X23650Y12150
X24650Y13150
X26150Y13150
X26150Y12150
X25650Y10900
X23650Y9400
X22650Y9400
X21650Y10900
X19650Y14150
X20650Y15150
X21650Y15150
X22650Y15150
X23650Y15150
X24650Y15150
X22650Y16400
X22650Y17900
X23650Y17900
X26650Y16400
X23650Y20900
X22650Y20900
X22650Y22025
X21275Y22025
X19400Y21775
X19400Y23775
X19400Y25775
X21275Y26025
X22650Y26025
X24025Y26025
X28650Y25900
X28650Y21900
X24025Y22025
X18400Y19650
X18400Y18150
X18400Y16650
X18150Y15150
X18150Y14150
X14400Y15150
X13400Y15150
X12400Y15150
X11400Y15150
X10400Y15150
X9400Y14150
X7900Y14150
X7900Y15150
X6400Y16650
X6400Y18150
X5150Y18900
X5150Y19900
X5150Y20900
X5150Y21900
X6400Y21150
X6400Y22650
X4150Y23150
X2150Y23150
X2150Y21900
X2150Y20900
X2150Y19900
X2150Y18900
X6400Y19650
X10400Y19650
X10400Y18150
X11775Y17525
X13275Y17525
X14400Y18150
X14400Y19650
X13275Y21525
X11775Y21525
X10400Y21150
X10400Y22650
X10525Y24775
X12525Y24775
X14525Y24775
X16525Y23775
X16525Y25775
X16525Y21775
X14400Y16650
X10400Y16650
X10400Y10650
X11650Y9900
X10400Y9275
X10400Y7775
X4150Y4275
T02
X3150Y11650
X3150Y13650
X3150Y15650
X26650Y17900
X30650Y18400
X30650Y20400
X26650Y21900
X26650Y23850
X30650Y15650
X30650Y13650
X30650Y11650
X30650Y8900
X30650Y6900
X26650Y5400
X26650Y3450
X26650Y9400
T03
X1650Y1650
X1650Y25650
X31900Y25650
X31900Y1525
M30
