G75*
%MOIN*%
%OFA0B0*%
%FSLAX24Y24*%
%IPPOS*%
%LPD*%
%AMOC8*
5,1,8,0,0,1.08239X$1,22.5*
%
%ADD10C,0.0000*%
%ADD11C,0.0030*%
%ADD12C,0.0040*%
%ADD13C,0.0020*%
%ADD14C,0.0400*%
%ADD15C,0.0240*%
%ADD16C,0.0100*%
%ADD17OC8,0.0850*%
%ADD18OC8,0.0930*%
%ADD19OC8,0.0520*%
%ADD20OC8,0.0600*%
%ADD21OC8,0.0630*%
%ADD22OC8,0.0710*%
%ADD23C,0.0630*%
%ADD24C,0.0710*%
%ADD25OC8,0.0680*%
%ADD26C,0.0050*%
%ADD27C,0.1182*%
%ADD28C,0.0520*%
%ADD29C,0.0600*%
D10*
X000201Y000469D02*
X000201Y026757D01*
X000203Y026795D01*
X000208Y026833D01*
X000218Y026870D01*
X000231Y026906D01*
X000247Y026940D01*
X000267Y026973D01*
X000289Y027004D01*
X000315Y027032D01*
X000343Y027058D01*
X000374Y027080D01*
X000407Y027100D01*
X000441Y027116D01*
X000477Y027129D01*
X000514Y027139D01*
X000552Y027144D01*
X000590Y027146D01*
X032813Y027146D01*
X032853Y027144D01*
X032892Y027139D01*
X032931Y027130D01*
X032969Y027118D01*
X033006Y027103D01*
X033042Y027085D01*
X033075Y027063D01*
X033107Y027039D01*
X033136Y027012D01*
X033163Y026983D01*
X033187Y026951D01*
X033209Y026918D01*
X033227Y026882D01*
X033242Y026845D01*
X033254Y026807D01*
X033263Y026768D01*
X033268Y026729D01*
X033270Y026689D01*
X033270Y000530D01*
X033268Y000493D01*
X033263Y000456D01*
X033254Y000420D01*
X033241Y000385D01*
X033225Y000351D01*
X033206Y000319D01*
X033184Y000289D01*
X033159Y000261D01*
X033131Y000236D01*
X033101Y000214D01*
X033069Y000195D01*
X033035Y000179D01*
X033000Y000166D01*
X032964Y000157D01*
X032927Y000152D01*
X032890Y000150D01*
X000521Y000150D01*
X000488Y000152D01*
X000455Y000157D01*
X000422Y000166D01*
X000391Y000178D01*
X000362Y000193D01*
X000333Y000211D01*
X000308Y000232D01*
X000284Y000256D01*
X000263Y000281D01*
X000245Y000309D01*
X000230Y000339D01*
X000218Y000370D01*
X000209Y000403D01*
X000204Y000436D01*
X000202Y000469D01*
X001099Y001650D02*
X001101Y001697D01*
X001107Y001743D01*
X001117Y001789D01*
X001130Y001834D01*
X001148Y001877D01*
X001169Y001919D01*
X001193Y001959D01*
X001221Y001996D01*
X001252Y002031D01*
X001286Y002064D01*
X001322Y002093D01*
X001361Y002119D01*
X001402Y002142D01*
X001445Y002161D01*
X001489Y002177D01*
X001534Y002189D01*
X001580Y002197D01*
X001627Y002201D01*
X001673Y002201D01*
X001720Y002197D01*
X001766Y002189D01*
X001811Y002177D01*
X001855Y002161D01*
X001898Y002142D01*
X001939Y002119D01*
X001978Y002093D01*
X002014Y002064D01*
X002048Y002031D01*
X002079Y001996D01*
X002107Y001959D01*
X002131Y001919D01*
X002152Y001877D01*
X002170Y001834D01*
X002183Y001789D01*
X002193Y001743D01*
X002199Y001697D01*
X002201Y001650D01*
X002199Y001603D01*
X002193Y001557D01*
X002183Y001511D01*
X002170Y001466D01*
X002152Y001423D01*
X002131Y001381D01*
X002107Y001341D01*
X002079Y001304D01*
X002048Y001269D01*
X002014Y001236D01*
X001978Y001207D01*
X001939Y001181D01*
X001898Y001158D01*
X001855Y001139D01*
X001811Y001123D01*
X001766Y001111D01*
X001720Y001103D01*
X001673Y001099D01*
X001627Y001099D01*
X001580Y001103D01*
X001534Y001111D01*
X001489Y001123D01*
X001445Y001139D01*
X001402Y001158D01*
X001361Y001181D01*
X001322Y001207D01*
X001286Y001236D01*
X001252Y001269D01*
X001221Y001304D01*
X001193Y001341D01*
X001169Y001381D01*
X001148Y001423D01*
X001130Y001466D01*
X001117Y001511D01*
X001107Y001557D01*
X001101Y001603D01*
X001099Y001650D01*
X003150Y011750D02*
X003150Y011760D01*
X003155Y011760D01*
X003157Y011758D01*
X003157Y011755D01*
X003155Y011753D01*
X003150Y011753D01*
X003153Y011753D02*
X003157Y011750D01*
X003159Y011750D02*
X003163Y011750D01*
X003161Y011750D02*
X003161Y011760D01*
X003159Y011760D02*
X003163Y011760D01*
X003165Y011758D02*
X003165Y011752D01*
X003167Y011750D01*
X003170Y011750D01*
X003172Y011752D01*
X003172Y011755D01*
X003169Y011755D01*
X003172Y011758D02*
X003170Y011760D01*
X003167Y011760D01*
X003165Y011758D01*
X003175Y011760D02*
X003175Y011750D01*
X003175Y011755D02*
X003181Y011755D01*
X003181Y011760D02*
X003181Y011750D01*
X003187Y011750D02*
X003187Y011760D01*
X003184Y011760D02*
X003190Y011760D01*
X003173Y013750D02*
X003175Y013752D01*
X003175Y013758D01*
X003173Y013760D01*
X003168Y013760D01*
X003168Y013750D01*
X003173Y013750D01*
X003166Y013750D02*
X003166Y013760D01*
X003159Y013760D02*
X003166Y013750D01*
X003159Y013750D02*
X003159Y013760D01*
X003157Y013758D02*
X003155Y013760D01*
X003152Y013760D01*
X003150Y013758D01*
X003150Y013752D01*
X003152Y013750D01*
X003155Y013750D01*
X003157Y013752D01*
X003157Y013755D01*
X003153Y013755D01*
X003155Y015750D02*
X003157Y015752D01*
X003157Y015755D01*
X003153Y015755D01*
X003150Y015752D02*
X003152Y015750D01*
X003155Y015750D01*
X003159Y015750D02*
X003159Y015760D01*
X003166Y015750D01*
X003166Y015760D01*
X003168Y015760D02*
X003173Y015760D01*
X003175Y015758D01*
X003175Y015752D01*
X003173Y015750D01*
X003168Y015750D01*
X003168Y015760D01*
X003157Y015758D02*
X003155Y015760D01*
X003152Y015760D01*
X003150Y015758D01*
X003150Y015752D01*
X001099Y025650D02*
X001101Y025697D01*
X001107Y025743D01*
X001117Y025789D01*
X001130Y025834D01*
X001148Y025877D01*
X001169Y025919D01*
X001193Y025959D01*
X001221Y025996D01*
X001252Y026031D01*
X001286Y026064D01*
X001322Y026093D01*
X001361Y026119D01*
X001402Y026142D01*
X001445Y026161D01*
X001489Y026177D01*
X001534Y026189D01*
X001580Y026197D01*
X001627Y026201D01*
X001673Y026201D01*
X001720Y026197D01*
X001766Y026189D01*
X001811Y026177D01*
X001855Y026161D01*
X001898Y026142D01*
X001939Y026119D01*
X001978Y026093D01*
X002014Y026064D01*
X002048Y026031D01*
X002079Y025996D01*
X002107Y025959D01*
X002131Y025919D01*
X002152Y025877D01*
X002170Y025834D01*
X002183Y025789D01*
X002193Y025743D01*
X002199Y025697D01*
X002201Y025650D01*
X002199Y025603D01*
X002193Y025557D01*
X002183Y025511D01*
X002170Y025466D01*
X002152Y025423D01*
X002131Y025381D01*
X002107Y025341D01*
X002079Y025304D01*
X002048Y025269D01*
X002014Y025236D01*
X001978Y025207D01*
X001939Y025181D01*
X001898Y025158D01*
X001855Y025139D01*
X001811Y025123D01*
X001766Y025111D01*
X001720Y025103D01*
X001673Y025099D01*
X001627Y025099D01*
X001580Y025103D01*
X001534Y025111D01*
X001489Y025123D01*
X001445Y025139D01*
X001402Y025158D01*
X001361Y025181D01*
X001322Y025207D01*
X001286Y025236D01*
X001252Y025269D01*
X001221Y025304D01*
X001193Y025341D01*
X001169Y025381D01*
X001148Y025423D01*
X001130Y025466D01*
X001117Y025511D01*
X001107Y025557D01*
X001101Y025603D01*
X001099Y025650D01*
X030650Y020510D02*
X030650Y020500D01*
X030657Y020500D01*
X030659Y020502D02*
X030661Y020500D01*
X030664Y020500D01*
X030666Y020502D01*
X030666Y020503D01*
X030664Y020505D01*
X030661Y020505D01*
X030659Y020507D01*
X030659Y020508D01*
X030661Y020510D01*
X030664Y020510D01*
X030666Y020508D01*
X030668Y020510D02*
X030673Y020510D01*
X030675Y020508D01*
X030675Y020505D01*
X030673Y020503D01*
X030668Y020503D01*
X030668Y020500D02*
X030668Y020510D01*
X030678Y020507D02*
X030681Y020510D01*
X030681Y020500D01*
X030678Y020500D02*
X030684Y020500D01*
X030687Y020502D02*
X030694Y020508D01*
X030694Y020502D01*
X030692Y020500D01*
X030688Y020500D01*
X030687Y020502D01*
X030687Y020508D01*
X030688Y020510D01*
X030692Y020510D01*
X030694Y020508D01*
X030655Y018510D02*
X030657Y018508D01*
X030657Y018505D01*
X030655Y018503D01*
X030650Y018503D01*
X030650Y018500D02*
X030650Y018510D01*
X030655Y018510D01*
X030653Y018503D02*
X030657Y018500D01*
X030668Y018502D02*
X030670Y018500D01*
X030673Y018500D01*
X030675Y018502D01*
X030675Y018505D01*
X030673Y018507D01*
X030670Y018507D01*
X030668Y018505D01*
X030668Y018502D01*
X030678Y018502D02*
X030679Y018500D01*
X030684Y018500D01*
X030684Y018507D01*
X030687Y018507D02*
X030690Y018507D01*
X030688Y018508D02*
X030688Y018502D01*
X030690Y018500D01*
X030678Y018502D02*
X030678Y018507D01*
X030681Y015760D02*
X030681Y015750D01*
X030678Y015750D02*
X030684Y015750D01*
X030687Y015752D02*
X030694Y015758D01*
X030694Y015752D01*
X030692Y015750D01*
X030688Y015750D01*
X030687Y015752D01*
X030687Y015758D01*
X030688Y015760D01*
X030692Y015760D01*
X030694Y015758D01*
X030681Y015760D02*
X030678Y015757D01*
X030675Y015758D02*
X030675Y015755D01*
X030673Y015753D01*
X030668Y015753D01*
X030666Y015753D02*
X030666Y015752D01*
X030664Y015750D01*
X030661Y015750D01*
X030659Y015752D01*
X030657Y015750D02*
X030650Y015750D01*
X030650Y015760D01*
X030659Y015758D02*
X030659Y015757D01*
X030661Y015755D01*
X030664Y015755D01*
X030666Y015753D01*
X030668Y015750D02*
X030668Y015760D01*
X030673Y015760D01*
X030675Y015758D01*
X030666Y015758D02*
X030664Y015760D01*
X030661Y015760D01*
X030659Y015758D01*
X030661Y013760D02*
X030659Y013758D01*
X030659Y013757D01*
X030661Y013755D01*
X030664Y013755D01*
X030666Y013753D01*
X030666Y013752D01*
X030664Y013750D01*
X030661Y013750D01*
X030659Y013752D01*
X030657Y013750D02*
X030650Y013750D01*
X030650Y013760D01*
X030661Y013760D02*
X030664Y013760D01*
X030666Y013758D01*
X030668Y013760D02*
X030673Y013760D01*
X030675Y013758D01*
X030675Y013755D01*
X030673Y013753D01*
X030668Y013753D01*
X030668Y013750D02*
X030668Y013760D01*
X030678Y013757D02*
X030681Y013760D01*
X030681Y013750D01*
X030678Y013750D02*
X030684Y013750D01*
X030687Y013752D02*
X030694Y013758D01*
X030694Y013752D01*
X030692Y013750D01*
X030688Y013750D01*
X030687Y013752D01*
X030687Y013758D01*
X030688Y013760D01*
X030692Y013760D01*
X030694Y013758D01*
X030692Y011760D02*
X030694Y011758D01*
X030687Y011752D01*
X030688Y011750D01*
X030692Y011750D01*
X030694Y011752D01*
X030694Y011758D01*
X030692Y011760D02*
X030688Y011760D01*
X030687Y011758D01*
X030687Y011752D01*
X030684Y011750D02*
X030678Y011750D01*
X030681Y011750D02*
X030681Y011760D01*
X030678Y011757D01*
X030675Y011758D02*
X030675Y011755D01*
X030673Y011753D01*
X030668Y011753D01*
X030666Y011753D02*
X030666Y011752D01*
X030664Y011750D01*
X030661Y011750D01*
X030659Y011752D01*
X030657Y011750D02*
X030650Y011750D01*
X030650Y011760D01*
X030659Y011758D02*
X030659Y011757D01*
X030661Y011755D01*
X030664Y011755D01*
X030666Y011753D01*
X030668Y011750D02*
X030668Y011760D01*
X030673Y011760D01*
X030675Y011758D01*
X030666Y011758D02*
X030664Y011760D01*
X030661Y011760D01*
X030659Y011758D01*
X030661Y009010D02*
X030659Y009008D01*
X030659Y009007D01*
X030661Y009005D01*
X030664Y009005D01*
X030666Y009003D01*
X030666Y009002D01*
X030664Y009000D01*
X030661Y009000D01*
X030659Y009002D01*
X030657Y009000D02*
X030650Y009000D01*
X030650Y009010D01*
X030661Y009010D02*
X030664Y009010D01*
X030666Y009008D01*
X030668Y009010D02*
X030668Y009000D01*
X030668Y009003D02*
X030673Y009003D01*
X030675Y009005D01*
X030675Y009008D01*
X030673Y009010D01*
X030668Y009010D01*
X030678Y009007D02*
X030681Y009010D01*
X030681Y009000D01*
X030678Y009000D02*
X030684Y009000D01*
X030687Y009002D02*
X030694Y009008D01*
X030694Y009002D01*
X030692Y009000D01*
X030688Y009000D01*
X030687Y009002D01*
X030687Y009008D01*
X030688Y009010D01*
X030692Y009010D01*
X030694Y009008D01*
X031349Y001525D02*
X031351Y001572D01*
X031357Y001618D01*
X031367Y001664D01*
X031380Y001709D01*
X031398Y001752D01*
X031419Y001794D01*
X031443Y001834D01*
X031471Y001871D01*
X031502Y001906D01*
X031536Y001939D01*
X031572Y001968D01*
X031611Y001994D01*
X031652Y002017D01*
X031695Y002036D01*
X031739Y002052D01*
X031784Y002064D01*
X031830Y002072D01*
X031877Y002076D01*
X031923Y002076D01*
X031970Y002072D01*
X032016Y002064D01*
X032061Y002052D01*
X032105Y002036D01*
X032148Y002017D01*
X032189Y001994D01*
X032228Y001968D01*
X032264Y001939D01*
X032298Y001906D01*
X032329Y001871D01*
X032357Y001834D01*
X032381Y001794D01*
X032402Y001752D01*
X032420Y001709D01*
X032433Y001664D01*
X032443Y001618D01*
X032449Y001572D01*
X032451Y001525D01*
X032449Y001478D01*
X032443Y001432D01*
X032433Y001386D01*
X032420Y001341D01*
X032402Y001298D01*
X032381Y001256D01*
X032357Y001216D01*
X032329Y001179D01*
X032298Y001144D01*
X032264Y001111D01*
X032228Y001082D01*
X032189Y001056D01*
X032148Y001033D01*
X032105Y001014D01*
X032061Y000998D01*
X032016Y000986D01*
X031970Y000978D01*
X031923Y000974D01*
X031877Y000974D01*
X031830Y000978D01*
X031784Y000986D01*
X031739Y000998D01*
X031695Y001014D01*
X031652Y001033D01*
X031611Y001056D01*
X031572Y001082D01*
X031536Y001111D01*
X031502Y001144D01*
X031471Y001179D01*
X031443Y001216D01*
X031419Y001256D01*
X031398Y001298D01*
X031380Y001341D01*
X031367Y001386D01*
X031357Y001432D01*
X031351Y001478D01*
X031349Y001525D01*
X031349Y025650D02*
X031351Y025697D01*
X031357Y025743D01*
X031367Y025789D01*
X031380Y025834D01*
X031398Y025877D01*
X031419Y025919D01*
X031443Y025959D01*
X031471Y025996D01*
X031502Y026031D01*
X031536Y026064D01*
X031572Y026093D01*
X031611Y026119D01*
X031652Y026142D01*
X031695Y026161D01*
X031739Y026177D01*
X031784Y026189D01*
X031830Y026197D01*
X031877Y026201D01*
X031923Y026201D01*
X031970Y026197D01*
X032016Y026189D01*
X032061Y026177D01*
X032105Y026161D01*
X032148Y026142D01*
X032189Y026119D01*
X032228Y026093D01*
X032264Y026064D01*
X032298Y026031D01*
X032329Y025996D01*
X032357Y025959D01*
X032381Y025919D01*
X032402Y025877D01*
X032420Y025834D01*
X032433Y025789D01*
X032443Y025743D01*
X032449Y025697D01*
X032451Y025650D01*
X032449Y025603D01*
X032443Y025557D01*
X032433Y025511D01*
X032420Y025466D01*
X032402Y025423D01*
X032381Y025381D01*
X032357Y025341D01*
X032329Y025304D01*
X032298Y025269D01*
X032264Y025236D01*
X032228Y025207D01*
X032189Y025181D01*
X032148Y025158D01*
X032105Y025139D01*
X032061Y025123D01*
X032016Y025111D01*
X031970Y025103D01*
X031923Y025099D01*
X031877Y025099D01*
X031830Y025103D01*
X031784Y025111D01*
X031739Y025123D01*
X031695Y025139D01*
X031652Y025158D01*
X031611Y025181D01*
X031572Y025207D01*
X031536Y025236D01*
X031502Y025269D01*
X031471Y025304D01*
X031443Y025341D01*
X031419Y025381D01*
X031398Y025423D01*
X031380Y025466D01*
X031367Y025511D01*
X031357Y025557D01*
X031351Y025603D01*
X031349Y025650D01*
D11*
X028535Y019420D02*
X028165Y019420D01*
X028165Y019297D02*
X028165Y019544D01*
X028165Y019175D02*
X028165Y018928D01*
X028535Y018928D01*
X028535Y018807D02*
X028535Y018560D01*
X028165Y018560D01*
X028165Y018807D01*
X028350Y018928D02*
X028350Y019052D01*
X028350Y018683D02*
X028350Y018560D01*
X028535Y018439D02*
X028535Y018192D01*
X028165Y018192D01*
X028165Y016044D02*
X028165Y015797D01*
X028535Y015797D01*
X028535Y016044D01*
X028350Y015920D02*
X028350Y015797D01*
X028412Y015675D02*
X028165Y015675D01*
X028412Y015675D02*
X028535Y015552D01*
X028412Y015428D01*
X028165Y015428D01*
X028350Y015307D02*
X028350Y015060D01*
X028473Y014044D02*
X028226Y014044D01*
X028165Y013982D01*
X028165Y013797D01*
X028535Y013797D01*
X028535Y013982D01*
X028473Y014044D01*
X028535Y013675D02*
X028165Y013675D01*
X028165Y013428D02*
X028535Y013675D01*
X028535Y013428D02*
X028165Y013428D01*
X028226Y013307D02*
X028165Y013245D01*
X028165Y013122D01*
X028226Y013060D01*
X028473Y013060D01*
X028535Y013122D01*
X028535Y013245D01*
X028473Y013307D01*
X028350Y013307D01*
X028350Y013183D01*
X028535Y012044D02*
X028535Y011797D01*
X028165Y011797D01*
X028165Y012044D01*
X028350Y011920D02*
X028350Y011797D01*
X028412Y011675D02*
X028165Y011675D01*
X028412Y011675D02*
X028535Y011552D01*
X028412Y011428D01*
X028165Y011428D01*
X028350Y011307D02*
X028350Y011060D01*
X028473Y011183D02*
X028226Y011183D01*
X028165Y009044D02*
X028165Y008797D01*
X028165Y008675D02*
X028535Y008675D01*
X028350Y008675D02*
X028350Y008428D01*
X028350Y008307D02*
X028350Y008183D01*
X028350Y008307D02*
X028473Y008307D01*
X028535Y008245D01*
X028535Y008122D01*
X028473Y008060D01*
X028226Y008060D01*
X028165Y008122D01*
X028165Y008245D01*
X028226Y008307D01*
X028165Y008428D02*
X028535Y008428D01*
X028535Y007938D02*
X028535Y007815D01*
X028535Y007876D02*
X028165Y007876D01*
X028165Y007815D02*
X028165Y007938D01*
X028226Y007693D02*
X028350Y007693D01*
X028412Y007631D01*
X028412Y007446D01*
X028535Y007446D02*
X028165Y007446D01*
X028165Y007631D01*
X028226Y007693D01*
X028412Y007570D02*
X028535Y007693D01*
X028535Y008920D02*
X028165Y008920D01*
X014402Y000850D02*
X014402Y000665D01*
X014279Y000665D02*
X014279Y000850D01*
X014340Y000912D01*
X014402Y000850D01*
X014279Y000850D02*
X014217Y000912D01*
X014155Y000912D01*
X014155Y000665D01*
X014034Y000727D02*
X014034Y000850D01*
X013972Y000912D01*
X013848Y000912D01*
X013787Y000850D01*
X013787Y000727D01*
X013848Y000665D01*
X013972Y000665D01*
X014034Y000727D01*
X013665Y000665D02*
X013480Y000665D01*
X013418Y000727D01*
X013418Y000850D01*
X013480Y000912D01*
X013665Y000912D01*
X013296Y000727D02*
X013296Y000665D01*
X013234Y000665D01*
X013234Y000727D01*
X013296Y000727D01*
X013113Y000665D02*
X012928Y000665D01*
X012866Y000727D01*
X012866Y000912D01*
X012745Y000912D02*
X012559Y000912D01*
X012498Y000850D01*
X012559Y000788D01*
X012683Y000788D01*
X012745Y000727D01*
X012683Y000665D01*
X012498Y000665D01*
X012314Y000665D02*
X012314Y000974D01*
X012376Y001035D01*
X012376Y000850D02*
X012252Y000850D01*
X012130Y000850D02*
X012007Y000850D01*
X011885Y000912D02*
X011885Y000665D01*
X011700Y000665D01*
X011638Y000727D01*
X011638Y000912D01*
X011517Y000850D02*
X011517Y000665D01*
X011393Y000665D02*
X011393Y000850D01*
X011455Y000912D01*
X011517Y000850D01*
X011393Y000850D02*
X011332Y000912D01*
X011270Y000912D01*
X011270Y000665D01*
X010780Y000665D02*
X010595Y000665D01*
X010533Y000727D01*
X010533Y000912D01*
X010412Y000850D02*
X010350Y000912D01*
X010165Y000912D01*
X010165Y001035D02*
X010165Y000665D01*
X010350Y000665D01*
X010412Y000727D01*
X010412Y000850D01*
X010780Y000912D02*
X010780Y000603D01*
X010718Y000542D01*
X010657Y000542D01*
X012068Y000665D02*
X012068Y000974D01*
X012130Y001035D01*
X012989Y000542D02*
X013051Y000542D01*
X013113Y000603D01*
X013113Y000912D01*
X005885Y010665D02*
X005515Y010665D01*
X005515Y010850D01*
X005576Y010912D01*
X005700Y010912D01*
X005762Y010850D01*
X005762Y010665D01*
X005762Y010788D02*
X005885Y010912D01*
X005885Y011033D02*
X005885Y011157D01*
X005885Y011095D02*
X005515Y011095D01*
X005515Y011033D02*
X005515Y011157D01*
X005576Y011279D02*
X005823Y011279D01*
X005885Y011341D01*
X005885Y011464D01*
X005823Y011526D01*
X005700Y011526D01*
X005700Y011402D01*
X005576Y011279D02*
X005515Y011341D01*
X005515Y011464D01*
X005576Y011526D01*
X005515Y011647D02*
X005885Y011647D01*
X005700Y011647D02*
X005700Y011894D01*
X005515Y011894D02*
X005885Y011894D01*
X005885Y012139D02*
X005515Y012139D01*
X005515Y012262D02*
X005515Y012015D01*
X005576Y013165D02*
X005823Y013165D01*
X005885Y013227D01*
X005885Y013350D01*
X005823Y013412D01*
X005700Y013412D01*
X005700Y013288D01*
X005576Y013165D02*
X005515Y013227D01*
X005515Y013350D01*
X005576Y013412D01*
X005515Y013533D02*
X005885Y013780D01*
X005515Y013780D01*
X005515Y013902D02*
X005515Y014087D01*
X005576Y014149D01*
X005823Y014149D01*
X005885Y014087D01*
X005885Y013902D01*
X005515Y013902D01*
X005515Y013533D02*
X005885Y013533D01*
X005885Y015165D02*
X005515Y015165D01*
X005515Y015533D02*
X005885Y015533D01*
X005885Y015780D01*
X005885Y015902D02*
X005515Y015902D01*
X005515Y016149D01*
X005515Y016270D02*
X005515Y016517D01*
X005515Y016393D02*
X005885Y016393D01*
X005700Y016025D02*
X005700Y015902D01*
X005515Y015780D02*
X005515Y015533D01*
X005700Y015533D02*
X005700Y015657D01*
X005885Y015412D02*
X005885Y015165D01*
X001135Y014389D02*
X000765Y014389D01*
X000765Y014512D02*
X000765Y014265D01*
X000765Y014144D02*
X001073Y014144D01*
X001135Y014082D01*
X001135Y013959D01*
X001073Y013897D01*
X000765Y013897D01*
X000826Y013776D02*
X000950Y013776D01*
X001012Y013714D01*
X001012Y013529D01*
X001135Y013529D02*
X000765Y013529D01*
X000765Y013714D01*
X000826Y013776D01*
X000765Y013407D02*
X001135Y013407D01*
X000765Y013161D01*
X001135Y013161D01*
X001135Y013038D02*
X001135Y012915D01*
X001135Y012977D02*
X000765Y012977D01*
X000765Y013038D02*
X000765Y012915D01*
D12*
X008495Y012711D02*
X008555Y012771D01*
X008795Y012531D01*
X008855Y012591D01*
X008855Y012711D01*
X008795Y012771D01*
X008555Y012771D01*
X008495Y012711D02*
X008495Y012591D01*
X008555Y012531D01*
X008795Y012531D01*
X008795Y012899D02*
X008795Y012959D01*
X008855Y012959D01*
X008855Y012899D01*
X008795Y012899D01*
X008855Y013083D02*
X008855Y013323D01*
X008855Y013203D02*
X008495Y013203D01*
X008615Y013083D01*
X008615Y013451D02*
X008795Y013451D01*
X008855Y013511D01*
X008855Y013692D01*
X008615Y013692D01*
X009058Y014632D02*
X008998Y014692D01*
X008998Y014812D01*
X009058Y014872D01*
X009119Y014872D01*
X009359Y014632D01*
X009359Y014872D01*
X009359Y015000D02*
X009119Y015240D01*
X009058Y015240D01*
X008998Y015180D01*
X008998Y015060D01*
X009058Y015000D01*
X009359Y015000D02*
X009359Y015240D01*
X009299Y015368D02*
X009359Y015428D01*
X009359Y015609D01*
X009119Y015609D01*
X009119Y015368D02*
X009299Y015368D01*
X014952Y014347D02*
X015312Y014347D01*
X015312Y014227D02*
X015312Y014467D01*
X015252Y014595D02*
X015312Y014655D01*
X015312Y014835D01*
X015072Y014835D01*
X015072Y014595D02*
X015252Y014595D01*
X014952Y014347D02*
X015072Y014227D01*
X015252Y014103D02*
X015312Y014103D01*
X015312Y014043D01*
X015252Y014043D01*
X015252Y014103D01*
X015252Y013915D02*
X015012Y013915D01*
X015252Y013674D01*
X015312Y013734D01*
X015312Y013854D01*
X015252Y013915D01*
X015012Y013915D02*
X014952Y013854D01*
X014952Y013734D01*
X015012Y013674D01*
X015252Y013674D01*
X016959Y013305D02*
X016959Y013185D01*
X017019Y013125D01*
X017019Y012997D02*
X016959Y012937D01*
X016959Y012817D01*
X017019Y012757D01*
X017019Y012997D02*
X017079Y012997D01*
X017319Y012757D01*
X017319Y012997D01*
X017319Y013125D02*
X017079Y013365D01*
X017019Y013365D01*
X016959Y013305D01*
X017079Y013493D02*
X017259Y013493D01*
X017319Y013553D01*
X017319Y013734D01*
X017079Y013734D01*
X017319Y013365D02*
X017319Y013125D01*
X018745Y013150D02*
X018865Y013030D01*
X018745Y013150D02*
X019105Y013150D01*
X019105Y013030D02*
X019105Y013270D01*
X019045Y013398D02*
X018865Y013398D01*
X019045Y013398D02*
X019105Y013458D01*
X019105Y013638D01*
X018865Y013638D01*
X019045Y012906D02*
X019105Y012906D01*
X019105Y012846D01*
X019045Y012846D01*
X019045Y012906D01*
X019045Y012718D02*
X018805Y012718D01*
X019045Y012477D01*
X019105Y012538D01*
X019105Y012658D01*
X019045Y012718D01*
X018805Y012718D02*
X018745Y012658D01*
X018745Y012538D01*
X018805Y012477D01*
X019045Y012477D01*
X019269Y014757D02*
X019209Y014817D01*
X019209Y014937D01*
X019269Y014997D01*
X019329Y014997D01*
X019569Y014757D01*
X019569Y014997D01*
X019569Y015125D02*
X019329Y015365D01*
X019269Y015365D01*
X019209Y015305D01*
X019209Y015185D01*
X019269Y015125D01*
X019569Y015125D02*
X019569Y015365D01*
X019509Y015493D02*
X019569Y015553D01*
X019569Y015734D01*
X019329Y015734D01*
X019329Y015493D02*
X019509Y015493D01*
X025202Y014379D02*
X025562Y014379D01*
X025562Y014259D02*
X025562Y014499D01*
X025502Y014628D02*
X025562Y014688D01*
X025562Y014868D01*
X025322Y014868D01*
X025322Y014628D02*
X025502Y014628D01*
X025202Y014379D02*
X025322Y014259D01*
X025502Y014135D02*
X025562Y014135D01*
X025562Y014075D01*
X025502Y014075D01*
X025502Y014135D01*
X025502Y013947D02*
X025562Y013887D01*
X025562Y013767D01*
X025502Y013707D01*
X025262Y013947D01*
X025502Y013947D01*
X025502Y013707D02*
X025262Y013707D01*
X025202Y013767D01*
X025202Y013887D01*
X025262Y013947D01*
X027209Y013305D02*
X027209Y013185D01*
X027269Y013125D01*
X027269Y012997D02*
X027209Y012937D01*
X027209Y012817D01*
X027269Y012757D01*
X027269Y012997D02*
X027329Y012997D01*
X027569Y012757D01*
X027569Y012997D01*
X027569Y013125D02*
X027329Y013365D01*
X027269Y013365D01*
X027209Y013305D01*
X027329Y013493D02*
X027509Y013493D01*
X027569Y013553D01*
X027569Y013734D01*
X027329Y013734D01*
X027569Y013365D02*
X027569Y013125D01*
X028343Y007104D02*
X028343Y006757D01*
X028170Y006930D02*
X028517Y006930D01*
X028343Y020257D02*
X028343Y020604D01*
X028170Y020430D02*
X028517Y020430D01*
X011015Y026295D02*
X010785Y026295D01*
X010708Y026372D01*
X010785Y026448D01*
X011015Y026448D01*
X011015Y026525D02*
X011015Y026295D01*
X011015Y026525D02*
X010939Y026602D01*
X010785Y026602D01*
X010555Y026525D02*
X010555Y026295D01*
X010401Y026295D02*
X010401Y026525D01*
X010478Y026602D01*
X010555Y026525D01*
X010401Y026525D02*
X010325Y026602D01*
X010248Y026602D01*
X010248Y026295D01*
X010094Y026602D02*
X010018Y026602D01*
X009864Y026448D01*
X009864Y026295D02*
X009864Y026602D01*
X009711Y026525D02*
X009711Y026295D01*
X009481Y026295D01*
X009404Y026372D01*
X009481Y026448D01*
X009711Y026448D01*
X009711Y026525D02*
X009634Y026602D01*
X009481Y026602D01*
X009250Y026755D02*
X008943Y026448D01*
X009020Y026525D02*
X009250Y026295D01*
X008943Y026295D02*
X008943Y026755D01*
X008713Y026602D02*
X008560Y026602D01*
X008483Y026525D01*
X008483Y026372D01*
X008560Y026295D01*
X008713Y026295D01*
X008790Y026372D01*
X008790Y026525D01*
X008713Y026602D01*
X008253Y026602D02*
X008253Y026295D01*
X008176Y026295D02*
X008330Y026295D01*
X008023Y026295D02*
X007793Y026295D01*
X007716Y026372D01*
X007716Y026525D01*
X007793Y026602D01*
X008023Y026602D01*
X008176Y026602D02*
X008253Y026602D01*
X008253Y026755D02*
X008253Y026832D01*
X008023Y026755D02*
X008023Y026295D01*
X007562Y026295D02*
X007562Y026602D01*
X007255Y026602D02*
X007255Y026372D01*
X007332Y026295D01*
X007562Y026295D01*
X007102Y026295D02*
X007102Y026602D01*
X006948Y026755D01*
X006795Y026602D01*
X006795Y026295D01*
X006795Y026525D02*
X007102Y026525D01*
X007747Y025630D02*
X007670Y025554D01*
X007670Y025247D01*
X007747Y025170D01*
X007900Y025170D01*
X007977Y025247D01*
X008130Y025170D02*
X008130Y025630D01*
X008437Y025170D01*
X008437Y025630D01*
X008591Y025554D02*
X008591Y025247D01*
X008668Y025170D01*
X008821Y025170D01*
X008898Y025247D01*
X008898Y025554D02*
X008821Y025630D01*
X008668Y025630D01*
X008591Y025554D01*
X007977Y025554D02*
X007900Y025630D01*
X007747Y025630D01*
X004192Y024050D02*
X004192Y023930D01*
X004132Y023870D01*
X003952Y023870D01*
X003952Y023750D02*
X003952Y024110D01*
X004132Y024110D01*
X004192Y024050D01*
X003824Y023930D02*
X003764Y023870D01*
X003643Y023870D01*
X003583Y023930D01*
X003824Y024170D01*
X003824Y023930D01*
X003824Y024170D02*
X003764Y024230D01*
X003643Y024230D01*
X003583Y024170D01*
X003583Y023930D01*
X003455Y023930D02*
X003395Y023870D01*
X003275Y023870D01*
X003215Y023930D01*
X003455Y024170D01*
X003455Y023930D01*
X003215Y023930D02*
X003215Y024170D01*
X003275Y024230D01*
X003395Y024230D01*
X003455Y024170D01*
X003087Y024170D02*
X003027Y024230D01*
X002907Y024230D01*
X002847Y024170D01*
X002719Y024050D02*
X002478Y024050D01*
X002350Y024170D02*
X002350Y023930D01*
X002290Y023870D01*
X002170Y023870D01*
X002110Y023930D01*
X002350Y024170D01*
X002290Y024230D01*
X002170Y024230D01*
X002110Y024170D01*
X002110Y023930D01*
X002847Y023870D02*
X003087Y024110D01*
X003087Y024170D01*
X003087Y023870D02*
X002847Y023870D01*
X002942Y003555D02*
X002882Y003495D01*
X002942Y003555D02*
X003062Y003555D01*
X003122Y003495D01*
X003122Y003435D01*
X002882Y003195D01*
X003122Y003195D01*
X003250Y003255D02*
X003490Y003495D01*
X003490Y003255D01*
X003430Y003195D01*
X003310Y003195D01*
X003250Y003255D01*
X003250Y003495D01*
X003310Y003555D01*
X003430Y003555D01*
X003490Y003495D01*
X003618Y003495D02*
X003678Y003555D01*
X003798Y003555D01*
X003858Y003495D01*
X003618Y003255D01*
X003678Y003195D01*
X003798Y003195D01*
X003858Y003255D01*
X003858Y003495D01*
X003987Y003435D02*
X004167Y003435D01*
X004227Y003375D01*
X004227Y003255D01*
X004167Y003195D01*
X003987Y003195D01*
X003987Y003075D02*
X003987Y003435D01*
X003618Y003495D02*
X003618Y003255D01*
X002754Y003375D02*
X002513Y003375D01*
X002385Y003495D02*
X002385Y003255D01*
X002325Y003195D01*
X002205Y003195D01*
X002145Y003255D01*
X002385Y003495D01*
X002325Y003555D01*
X002205Y003555D01*
X002145Y003495D01*
X002145Y003255D01*
X006045Y003179D02*
X006045Y002872D01*
X006122Y002795D01*
X006275Y002795D01*
X006352Y002872D01*
X006352Y003025D01*
X006198Y003025D01*
X006045Y003179D02*
X006122Y003255D01*
X006275Y003255D01*
X006352Y003179D01*
X006505Y003102D02*
X006659Y003255D01*
X006812Y003102D01*
X006812Y002795D01*
X006966Y002795D02*
X007119Y002795D01*
X007043Y002795D02*
X007043Y003255D01*
X007119Y003255D02*
X006966Y003255D01*
X006812Y003025D02*
X006505Y003025D01*
X006505Y003102D02*
X006505Y002795D01*
X007273Y002795D02*
X007273Y003255D01*
X007580Y002795D01*
X007580Y003255D01*
X007733Y003102D02*
X007733Y003025D01*
X007810Y003025D01*
X007810Y003102D01*
X007733Y003102D01*
X007733Y002872D02*
X007733Y002795D01*
X007810Y002795D01*
X007810Y002872D01*
X007733Y002872D01*
D13*
X007529Y002335D02*
X007566Y002298D01*
X007566Y002262D01*
X007529Y002225D01*
X007419Y002225D01*
X007345Y002262D02*
X007235Y002262D01*
X007198Y002225D01*
X007198Y002152D01*
X007235Y002115D01*
X007345Y002115D01*
X007345Y002335D01*
X007419Y002335D02*
X007419Y002115D01*
X007529Y002115D01*
X007566Y002152D01*
X007566Y002188D01*
X007529Y002225D01*
X007529Y002335D02*
X007419Y002335D01*
X007419Y001975D02*
X007529Y001975D01*
X007566Y001938D01*
X007566Y001902D01*
X007529Y001865D01*
X007419Y001865D01*
X007345Y001902D02*
X007235Y001902D01*
X007198Y001865D01*
X007198Y001792D01*
X007235Y001755D01*
X007345Y001755D01*
X007345Y001975D01*
X007419Y001975D02*
X007419Y001755D01*
X007529Y001755D01*
X007566Y001792D01*
X007566Y001828D01*
X007529Y001865D01*
X007529Y001615D02*
X007566Y001578D01*
X007566Y001542D01*
X007529Y001505D01*
X007419Y001505D01*
X007345Y001542D02*
X007235Y001542D01*
X007198Y001505D01*
X007198Y001432D01*
X007235Y001395D01*
X007345Y001395D01*
X007345Y001615D01*
X007419Y001615D02*
X007529Y001615D01*
X007529Y001505D02*
X007566Y001468D01*
X007566Y001432D01*
X007529Y001395D01*
X007419Y001395D01*
X007419Y001615D01*
X007419Y001255D02*
X007529Y001255D01*
X007566Y001218D01*
X007566Y001182D01*
X007529Y001145D01*
X007419Y001145D01*
X007345Y001182D02*
X007235Y001182D01*
X007198Y001145D01*
X007198Y001072D01*
X007235Y001035D01*
X007345Y001035D01*
X007345Y001255D01*
X007419Y001255D02*
X007419Y001035D01*
X007529Y001035D01*
X007566Y001072D01*
X007566Y001108D01*
X007529Y001145D01*
X007861Y001145D02*
X008008Y001145D01*
X008303Y001035D02*
X008303Y001255D01*
X008376Y001182D01*
X008450Y001255D01*
X008450Y001035D01*
X008524Y001072D02*
X008561Y001108D01*
X008671Y001108D01*
X008671Y001145D02*
X008671Y001035D01*
X008561Y001035D01*
X008524Y001072D01*
X008561Y001182D02*
X008634Y001182D01*
X008671Y001145D01*
X008745Y001182D02*
X008892Y001035D01*
X008745Y001035D02*
X008892Y001182D01*
X008781Y001322D02*
X008818Y001358D01*
X008818Y001542D01*
X008708Y001542D01*
X008671Y001505D01*
X008671Y001432D01*
X008708Y001395D01*
X008818Y001395D01*
X008892Y001395D02*
X008892Y001615D01*
X008929Y001542D02*
X009002Y001542D01*
X009039Y001505D01*
X009039Y001395D01*
X008892Y001505D02*
X008929Y001542D01*
X008892Y001755D02*
X008782Y001755D01*
X008745Y001792D01*
X008745Y001865D01*
X008782Y001902D01*
X008892Y001902D01*
X008892Y001975D02*
X008892Y001755D01*
X008671Y001828D02*
X008524Y001828D01*
X008524Y001792D02*
X008524Y001865D01*
X008561Y001902D01*
X008634Y001902D01*
X008671Y001865D01*
X008671Y001828D01*
X008634Y001755D02*
X008561Y001755D01*
X008524Y001792D01*
X008450Y001755D02*
X008450Y001975D01*
X008376Y001902D01*
X008303Y001975D01*
X008303Y001755D01*
X008303Y001615D02*
X008303Y001395D01*
X008303Y001505D02*
X008450Y001505D01*
X008524Y001542D02*
X008561Y001542D01*
X008561Y001395D01*
X008597Y001395D02*
X008524Y001395D01*
X008450Y001395D02*
X008450Y001615D01*
X008561Y001615D02*
X008561Y001652D01*
X008561Y002115D02*
X008524Y002152D01*
X008524Y002225D01*
X008561Y002262D01*
X008634Y002262D01*
X008671Y002225D01*
X008671Y002152D01*
X008634Y002115D01*
X008561Y002115D01*
X008450Y002115D02*
X008303Y002115D01*
X008303Y002335D01*
X008008Y002225D02*
X007861Y002225D01*
X007861Y001865D02*
X008008Y001865D01*
X008008Y001505D02*
X007861Y001505D01*
X008745Y001322D02*
X008781Y001322D01*
X008782Y002115D02*
X008818Y002152D01*
X008855Y002115D01*
X008892Y002152D01*
X008892Y002262D01*
X008745Y002262D02*
X008745Y002152D01*
X008782Y002115D01*
X006903Y002152D02*
X006903Y002188D01*
X006866Y002225D01*
X006756Y002225D01*
X006756Y002152D01*
X006793Y002115D01*
X006866Y002115D01*
X006903Y002152D01*
X006829Y002298D02*
X006756Y002225D01*
X006682Y002188D02*
X006682Y002152D01*
X006645Y002115D01*
X006572Y002115D01*
X006535Y002152D01*
X006608Y002225D02*
X006645Y002225D01*
X006682Y002188D01*
X006645Y002225D02*
X006682Y002262D01*
X006682Y002298D01*
X006645Y002335D01*
X006572Y002335D01*
X006535Y002298D01*
X006829Y002298D02*
X006903Y002335D01*
X006866Y001975D02*
X006903Y001938D01*
X006756Y001792D01*
X006793Y001755D01*
X006866Y001755D01*
X006903Y001792D01*
X006903Y001938D01*
X006866Y001975D02*
X006793Y001975D01*
X006756Y001938D01*
X006756Y001792D01*
X006682Y001865D02*
X006535Y001865D01*
X006645Y001975D01*
X006645Y001755D01*
X006645Y001615D02*
X006535Y001505D01*
X006682Y001505D01*
X006756Y001505D02*
X006903Y001505D01*
X006866Y001395D02*
X006866Y001615D01*
X006756Y001505D01*
X006645Y001395D02*
X006645Y001615D01*
X006645Y001255D02*
X006535Y001145D01*
X006682Y001145D01*
X006756Y001145D02*
X006866Y001145D01*
X006903Y001108D01*
X006903Y001072D01*
X006866Y001035D01*
X006793Y001035D01*
X006756Y001072D01*
X006756Y001145D01*
X006829Y001218D01*
X006903Y001255D01*
X006645Y001255D02*
X006645Y001035D01*
X006182Y001108D02*
X006035Y001108D01*
X006035Y001182D02*
X006182Y001182D01*
X006182Y001468D02*
X006035Y001468D01*
X006035Y001542D02*
X006182Y001542D01*
X006182Y001828D02*
X006035Y001828D01*
X006035Y001902D02*
X006182Y001902D01*
X005808Y002115D02*
X005735Y002115D01*
X005698Y002152D01*
X005698Y002225D01*
X005735Y002262D01*
X005808Y002262D01*
X005845Y002225D01*
X005845Y002188D01*
X005698Y002188D01*
X005624Y002225D02*
X005624Y002115D01*
X005624Y002225D02*
X005587Y002262D01*
X005477Y002262D01*
X005477Y002115D01*
X005403Y002152D02*
X005403Y002225D01*
X005366Y002262D01*
X005293Y002262D01*
X005256Y002225D01*
X005256Y002152D01*
X005293Y002115D01*
X005366Y002115D01*
X005403Y002152D01*
X005182Y002115D02*
X005182Y002335D01*
X005035Y002335D02*
X005182Y002115D01*
X005035Y002115D02*
X005035Y002335D01*
X005477Y001902D02*
X005550Y001975D01*
X005550Y001755D01*
X005477Y001755D02*
X005624Y001755D01*
X005587Y001615D02*
X005514Y001615D01*
X005477Y001578D01*
X005587Y001615D02*
X005624Y001578D01*
X005624Y001542D01*
X005477Y001395D01*
X005624Y001395D01*
X005587Y001255D02*
X005514Y001255D01*
X005477Y001218D01*
X005403Y001145D02*
X005256Y001145D01*
X005329Y001218D02*
X005329Y001072D01*
X005182Y001035D02*
X005035Y001035D01*
X005108Y001035D02*
X005108Y001255D01*
X005035Y001182D01*
X005477Y001035D02*
X005624Y001182D01*
X005624Y001218D01*
X005587Y001255D01*
X005624Y001035D02*
X005477Y001035D01*
X006035Y002188D02*
X006182Y002188D01*
X006182Y002262D02*
X006035Y002262D01*
X001390Y006635D02*
X001243Y006782D01*
X001207Y006782D01*
X001170Y006745D01*
X001170Y006672D01*
X001207Y006635D01*
X001390Y006635D02*
X001390Y006782D01*
X001280Y006856D02*
X001280Y007003D01*
X001207Y006929D02*
X001353Y006929D01*
X001353Y007077D02*
X001390Y007114D01*
X001390Y007187D01*
X001353Y007224D01*
X001317Y007224D01*
X001280Y007187D01*
X001280Y007150D01*
X001280Y007187D02*
X001243Y007224D01*
X001207Y007224D01*
X001170Y007187D01*
X001170Y007114D01*
X001207Y007077D01*
X000940Y007098D02*
X000940Y007271D01*
X000940Y007355D02*
X000940Y007485D01*
X000897Y007529D01*
X000723Y007529D01*
X000680Y007485D01*
X000680Y007355D01*
X000940Y007355D01*
X000810Y007184D02*
X000810Y007098D01*
X000810Y007013D02*
X000853Y006970D01*
X000853Y006840D01*
X000940Y006840D02*
X000680Y006840D01*
X000680Y006970D01*
X000723Y007013D01*
X000810Y007013D01*
X000680Y007098D02*
X000940Y007098D01*
X000680Y007098D02*
X000680Y007271D01*
X000767Y007613D02*
X000680Y007700D01*
X000767Y007787D01*
X000940Y007787D01*
X000940Y007871D02*
X000680Y007871D01*
X000940Y008044D01*
X000680Y008044D01*
X000723Y008129D02*
X000897Y008129D01*
X000940Y008172D01*
X000940Y008259D01*
X000897Y008302D01*
X000940Y008387D02*
X000940Y008560D01*
X000940Y008644D02*
X000897Y008644D01*
X000897Y008688D01*
X000940Y008688D01*
X000940Y008644D01*
X000810Y008644D02*
X000767Y008644D01*
X000767Y008688D01*
X000810Y008688D01*
X000810Y008644D01*
X000680Y008560D02*
X000680Y008387D01*
X000940Y008387D01*
X000810Y008387D02*
X000810Y008473D01*
X000723Y008302D02*
X000680Y008259D01*
X000680Y008172D01*
X000723Y008129D01*
X000810Y007787D02*
X000810Y007613D01*
X000767Y007613D02*
X000940Y007613D01*
X001243Y007666D02*
X001243Y007519D01*
X001317Y007519D02*
X001317Y007666D01*
X001280Y007961D02*
X001280Y008108D01*
X001353Y008182D02*
X001207Y008329D01*
X001170Y008329D01*
X001170Y008182D01*
X001170Y008071D02*
X001280Y007961D01*
X001390Y008071D02*
X001170Y008071D01*
X001353Y008182D02*
X001390Y008182D01*
X001390Y008403D02*
X001170Y008403D01*
X001243Y008513D02*
X001317Y008403D01*
X001390Y008513D01*
X000940Y006755D02*
X000680Y006755D01*
X000767Y006669D01*
X000680Y006582D01*
X000940Y006582D01*
X000940Y006497D02*
X000940Y006410D01*
X000940Y006453D02*
X000680Y006453D01*
X000680Y006410D02*
X000680Y006497D01*
X000630Y018835D02*
X000630Y018922D01*
X000630Y018878D02*
X000890Y018878D01*
X000890Y018835D02*
X000890Y018922D01*
X000890Y019007D02*
X000630Y019007D01*
X000717Y019094D01*
X000630Y019180D01*
X000890Y019180D01*
X000890Y019265D02*
X000630Y019265D01*
X000630Y019395D01*
X000673Y019438D01*
X000760Y019438D01*
X000803Y019395D01*
X000803Y019265D01*
X000760Y019523D02*
X000760Y019609D01*
X000890Y019523D02*
X000890Y019696D01*
X000890Y019780D02*
X000890Y019910D01*
X000847Y019954D01*
X000673Y019954D01*
X000630Y019910D01*
X000630Y019780D01*
X000890Y019780D01*
X000890Y019523D02*
X000630Y019523D01*
X000630Y019696D01*
X000717Y020038D02*
X000630Y020125D01*
X000717Y020212D01*
X000890Y020212D01*
X000890Y020296D02*
X000630Y020296D01*
X000890Y020469D01*
X000630Y020469D01*
X000673Y020554D02*
X000630Y020597D01*
X000630Y020684D01*
X000673Y020727D01*
X000630Y020812D02*
X000890Y020812D01*
X000890Y020985D01*
X000890Y021069D02*
X000847Y021069D01*
X000847Y021113D01*
X000890Y021113D01*
X000890Y021069D01*
X000760Y021069D02*
X000717Y021069D01*
X000717Y021113D01*
X000760Y021113D01*
X000760Y021069D01*
X000630Y020985D02*
X000630Y020812D01*
X000760Y020812D02*
X000760Y020898D01*
X000847Y020727D02*
X000890Y020684D01*
X000890Y020597D01*
X000847Y020554D01*
X000673Y020554D01*
X000760Y020212D02*
X000760Y020038D01*
X000717Y020038D02*
X000890Y020038D01*
X001268Y020091D02*
X001268Y019944D01*
X001342Y019944D02*
X001342Y020091D01*
X001305Y020386D02*
X001305Y020533D01*
X001378Y020607D02*
X001232Y020754D01*
X001195Y020754D01*
X001195Y020607D01*
X001195Y020496D02*
X001305Y020386D01*
X001415Y020496D02*
X001195Y020496D01*
X001378Y020607D02*
X001415Y020607D01*
X001415Y020828D02*
X001195Y020828D01*
X001268Y020938D02*
X001342Y020828D01*
X001415Y020938D01*
X001378Y019649D02*
X001415Y019612D01*
X001415Y019539D01*
X001378Y019502D01*
X001305Y019575D02*
X001305Y019612D01*
X001342Y019649D01*
X001378Y019649D01*
X001305Y019612D02*
X001268Y019649D01*
X001232Y019649D01*
X001195Y019612D01*
X001195Y019539D01*
X001232Y019502D01*
X001305Y019428D02*
X001305Y019281D01*
X001268Y019207D02*
X001232Y019207D01*
X001195Y019170D01*
X001195Y019097D01*
X001232Y019060D01*
X001268Y019207D02*
X001415Y019060D01*
X001415Y019207D01*
X001378Y019354D02*
X001232Y019354D01*
D14*
X004400Y025025D02*
X004650Y025025D01*
X004525Y025150D02*
X004525Y026400D01*
X004400Y026400D01*
X004525Y026400D02*
X004650Y026400D01*
X005650Y026400D02*
X005900Y026400D01*
X005775Y026400D02*
X005775Y025150D01*
X005650Y025025D02*
X005900Y025025D01*
D15*
X005275Y025150D02*
X005025Y025150D01*
X005150Y025150D02*
X005150Y025775D01*
X005775Y026400D01*
X005150Y025775D02*
X004525Y026400D01*
D16*
X004025Y026775D02*
X004025Y024650D01*
X006275Y024650D01*
X006275Y026775D01*
X004025Y026775D01*
D17*
X003150Y015650D03*
X003150Y013650D03*
X003150Y011650D03*
X030650Y011650D03*
X030650Y013650D03*
X030650Y015650D03*
X030650Y018400D03*
X030650Y020400D03*
X030650Y008900D03*
X030650Y006900D03*
D18*
X030650Y006900D03*
X030650Y008900D03*
X030650Y011650D03*
X030650Y013650D03*
X030650Y015650D03*
X030650Y018400D03*
X030650Y020400D03*
X003150Y015650D03*
X003150Y013650D03*
X003150Y011650D03*
D19*
X006400Y010650D03*
X006400Y009275D03*
X006400Y007775D03*
X006400Y006275D03*
X006400Y004775D03*
X004150Y004275D03*
X002150Y004275D03*
X010400Y004775D03*
X011650Y005900D03*
X010400Y006275D03*
X010400Y007775D03*
X010400Y009275D03*
X011650Y009900D03*
X010400Y010650D03*
X009400Y012150D03*
X009400Y014150D03*
X010400Y016650D03*
X011775Y017525D03*
X013275Y017525D03*
X014400Y018150D03*
X014400Y019650D03*
X013275Y021525D03*
X011775Y021525D03*
X010400Y021150D03*
X010400Y022650D03*
X010525Y024775D03*
X012525Y024775D03*
X014525Y024775D03*
X016525Y023775D03*
X016525Y025775D03*
X019400Y025775D03*
X021275Y026025D03*
X022650Y026025D03*
X024025Y026025D03*
X019400Y023775D03*
X021275Y022025D03*
X022650Y022025D03*
X024025Y022025D03*
X019400Y021775D03*
X018400Y019650D03*
X018400Y018150D03*
X018400Y016650D03*
X019650Y014150D03*
X019650Y012150D03*
X018400Y010650D03*
X018400Y009150D03*
X018400Y007650D03*
X019275Y005525D03*
X021275Y005275D03*
X022650Y005275D03*
X024025Y005275D03*
X028650Y005400D03*
X028650Y001400D03*
X024025Y001275D03*
X022650Y001275D03*
X021275Y001275D03*
X019275Y001525D03*
X019275Y003525D03*
X016400Y003525D03*
X014400Y002525D03*
X012400Y002525D03*
X010400Y002525D03*
X013150Y005900D03*
X014400Y007650D03*
X014400Y009150D03*
X013150Y009900D03*
X014400Y010650D03*
X014400Y013150D03*
X014400Y015150D03*
X014400Y016650D03*
X010400Y018150D03*
X010400Y019650D03*
X006400Y019650D03*
X006400Y018150D03*
X006400Y016650D03*
X006400Y021150D03*
X006400Y022650D03*
X004150Y023150D03*
X002150Y023150D03*
X016525Y021775D03*
X022650Y016400D03*
X024650Y015150D03*
X026650Y016400D03*
X024650Y013150D03*
X025650Y010900D03*
X021650Y010900D03*
X016400Y005525D03*
X016400Y001525D03*
X028650Y021900D03*
X028650Y025900D03*
D20*
X028650Y025900D03*
X026650Y023850D03*
X026650Y021900D03*
X028650Y021900D03*
X024025Y022025D03*
X022650Y022025D03*
X021275Y022025D03*
X019400Y021775D03*
X019400Y023775D03*
X019400Y025775D03*
X021275Y026025D03*
X022650Y026025D03*
X024025Y026025D03*
X016525Y025775D03*
X014525Y024775D03*
X012525Y024775D03*
X010525Y024775D03*
X010400Y022650D03*
X011775Y021525D03*
X010400Y021150D03*
X010400Y019650D03*
X010400Y018150D03*
X011775Y017525D03*
X013275Y017525D03*
X014400Y018150D03*
X014400Y019650D03*
X013275Y021525D03*
X016525Y021775D03*
X016525Y023775D03*
X018400Y019650D03*
X018400Y018150D03*
X018400Y016650D03*
X019650Y014150D03*
X019650Y012150D03*
X018400Y010650D03*
X018400Y009150D03*
X018400Y007650D03*
X019275Y005525D03*
X021275Y005275D03*
X022650Y005275D03*
X024025Y005275D03*
X026650Y005400D03*
X028650Y005400D03*
X026650Y003450D03*
X028650Y001400D03*
X024025Y001275D03*
X022650Y001275D03*
X021275Y001275D03*
X019275Y001525D03*
X019275Y003525D03*
X016400Y003525D03*
X014400Y002525D03*
X012400Y002525D03*
X010400Y002525D03*
X010400Y004775D03*
X011650Y005900D03*
X010400Y006275D03*
X010400Y007775D03*
X010400Y009275D03*
X011650Y009900D03*
X010400Y010650D03*
X009400Y012150D03*
X009400Y014150D03*
X010400Y016650D03*
X006400Y016650D03*
X006400Y018150D03*
X006400Y019650D03*
X006400Y021150D03*
X006400Y022650D03*
X004150Y023150D03*
X002150Y023150D03*
X014400Y016650D03*
X014400Y015150D03*
X014400Y013150D03*
X014400Y010650D03*
X013150Y009900D03*
X014400Y009150D03*
X014400Y007650D03*
X013150Y005900D03*
X016400Y005525D03*
X016400Y001525D03*
X006400Y004775D03*
X006400Y006275D03*
X006400Y007775D03*
X006400Y009275D03*
X006400Y010650D03*
X004150Y004275D03*
X002150Y004275D03*
X021650Y010900D03*
X024650Y013150D03*
X024650Y015150D03*
X022650Y016400D03*
X026650Y016400D03*
X026650Y017900D03*
X025650Y010900D03*
X026650Y009400D03*
D21*
X026150Y012150D03*
X023650Y012150D03*
X022650Y012150D03*
X021650Y012150D03*
X020650Y012150D03*
X018150Y014150D03*
X020650Y015150D03*
X021650Y015150D03*
X022650Y015150D03*
X023650Y015150D03*
X015900Y012150D03*
X013400Y012150D03*
X012400Y012150D03*
X011400Y012150D03*
X010400Y012150D03*
X007900Y014150D03*
X010400Y015150D03*
X011400Y015150D03*
X012400Y015150D03*
X013400Y015150D03*
D22*
X013400Y015150D03*
X012400Y015150D03*
X011400Y015150D03*
X010400Y015150D03*
X007900Y014150D03*
X010400Y012150D03*
X011400Y012150D03*
X012400Y012150D03*
X013400Y012150D03*
X015900Y012150D03*
X018150Y014150D03*
X020650Y015150D03*
X021650Y015150D03*
X022650Y015150D03*
X023650Y015150D03*
X023650Y012150D03*
X022650Y012150D03*
X021650Y012150D03*
X020650Y012150D03*
X026150Y012150D03*
D23*
X026150Y013150D03*
X018150Y015150D03*
X015900Y013150D03*
X007900Y015150D03*
D24*
X007900Y015150D03*
X015900Y013150D03*
X018150Y015150D03*
X026150Y013150D03*
D25*
X026650Y009400D03*
X026650Y005400D03*
X026650Y003450D03*
X026650Y017900D03*
X026650Y021900D03*
X026650Y023850D03*
D26*
X028425Y023771D02*
X028575Y023620D01*
X028425Y023771D02*
X028875Y023771D01*
X028875Y023921D02*
X028875Y023620D01*
X028875Y023460D02*
X028875Y023160D01*
X028875Y023310D02*
X028425Y023310D01*
X028575Y023160D01*
X028500Y024081D02*
X028425Y024156D01*
X028425Y024306D01*
X028500Y024381D01*
X028800Y024081D01*
X028875Y024156D01*
X028875Y024306D01*
X028800Y024381D01*
X028500Y024381D01*
X028425Y024541D02*
X028875Y024541D01*
X028725Y024541D02*
X028575Y024766D01*
X028725Y024541D02*
X028875Y024766D01*
X028800Y024081D02*
X028500Y024081D01*
X024250Y024128D02*
X024250Y023978D01*
X024175Y023903D01*
X023875Y024203D01*
X024175Y024203D01*
X024250Y024128D01*
X024175Y023903D02*
X023875Y023903D01*
X023800Y023978D01*
X023800Y024128D01*
X023875Y024203D01*
X023875Y024363D02*
X023800Y024438D01*
X023800Y024588D01*
X023875Y024664D01*
X024175Y024363D01*
X024250Y024438D01*
X024250Y024588D01*
X024175Y024664D01*
X023875Y024664D01*
X023875Y024363D02*
X024175Y024363D01*
X024175Y023743D02*
X024250Y023668D01*
X024250Y023518D01*
X024175Y023442D01*
X024025Y023593D02*
X024025Y023668D01*
X024100Y023743D01*
X024175Y023743D01*
X024025Y023668D02*
X023950Y023743D01*
X023875Y023743D01*
X023800Y023668D01*
X023800Y023518D01*
X023875Y023442D01*
X022875Y023442D02*
X022875Y023743D01*
X022875Y023593D02*
X022425Y023593D01*
X022575Y023442D01*
X022575Y023903D02*
X022500Y023903D01*
X022425Y023978D01*
X022425Y024128D01*
X022500Y024203D01*
X022575Y024203D01*
X022650Y024128D01*
X022650Y023978D01*
X022575Y023903D01*
X022650Y023978D02*
X022725Y023903D01*
X022800Y023903D01*
X022875Y023978D01*
X022875Y024128D01*
X022800Y024203D01*
X022725Y024203D01*
X022650Y024128D01*
X022800Y024363D02*
X022500Y024363D01*
X022425Y024438D01*
X022425Y024588D01*
X022500Y024664D01*
X022800Y024363D01*
X022875Y024438D01*
X022875Y024588D01*
X022800Y024664D01*
X022500Y024664D01*
X021500Y024556D02*
X021500Y024406D01*
X021425Y024331D01*
X021125Y024631D01*
X021425Y024631D01*
X021500Y024556D01*
X021425Y024331D02*
X021125Y024331D01*
X021050Y024406D01*
X021050Y024556D01*
X021125Y024631D01*
X021125Y024171D02*
X021425Y023870D01*
X021500Y023945D01*
X021500Y024096D01*
X021425Y024171D01*
X021125Y024171D01*
X021050Y024096D01*
X021050Y023945D01*
X021125Y023870D01*
X021425Y023870D01*
X021425Y023710D02*
X021350Y023710D01*
X021275Y023635D01*
X021275Y023560D01*
X021275Y023635D02*
X021200Y023710D01*
X021125Y023710D01*
X021050Y023635D01*
X021050Y023485D01*
X021125Y023410D01*
X021425Y023410D02*
X021500Y023485D01*
X021500Y023635D01*
X021425Y023710D01*
X018975Y023944D02*
X018525Y023944D01*
X018750Y023719D01*
X018750Y024019D01*
X018900Y024179D02*
X018975Y024179D01*
X018900Y024179D02*
X018600Y024479D01*
X018525Y024479D01*
X018525Y024179D01*
X018675Y024640D02*
X018675Y024865D01*
X018750Y024940D01*
X018975Y024940D01*
X018975Y024640D02*
X018675Y024640D01*
X016100Y024640D02*
X015800Y024640D01*
X015800Y024865D01*
X015875Y024940D01*
X016100Y024940D01*
X016025Y024479D02*
X016100Y024404D01*
X016100Y024254D01*
X016025Y024179D01*
X015950Y024179D01*
X015875Y024254D01*
X015875Y024404D01*
X015950Y024479D01*
X016025Y024479D01*
X015875Y024404D02*
X015800Y024479D01*
X015725Y024479D01*
X015650Y024404D01*
X015650Y024254D01*
X015725Y024179D01*
X015800Y024179D01*
X015875Y024254D01*
X015950Y024019D02*
X015875Y023944D01*
X015875Y023719D01*
X016025Y023719D01*
X016100Y023794D01*
X016100Y023944D01*
X016025Y024019D01*
X015950Y024019D01*
X015725Y023869D02*
X015875Y023719D01*
X015725Y023869D02*
X015650Y024019D01*
X012471Y024125D02*
X012471Y023900D01*
X012471Y024125D02*
X012396Y024200D01*
X012171Y024200D01*
X012171Y023900D01*
X012011Y023975D02*
X012011Y024050D01*
X011936Y024125D01*
X011785Y024125D01*
X011710Y024200D01*
X011710Y024275D01*
X011785Y024350D01*
X011936Y024350D01*
X012011Y024275D01*
X012011Y024200D01*
X011936Y024125D01*
X011785Y024125D02*
X011710Y024050D01*
X011710Y023975D01*
X011785Y023900D01*
X011936Y023900D01*
X012011Y023975D01*
X011550Y023975D02*
X011550Y024050D01*
X011475Y024125D01*
X011250Y024125D01*
X011250Y023975D01*
X011325Y023900D01*
X011475Y023900D01*
X011550Y023975D01*
X011400Y024275D02*
X011250Y024125D01*
X011400Y024275D02*
X011550Y024350D01*
X009032Y022725D02*
X008806Y022575D01*
X009032Y022425D01*
X008806Y022425D02*
X008806Y022875D01*
X008646Y022800D02*
X008646Y022500D01*
X008571Y022425D01*
X008421Y022425D01*
X008346Y022500D01*
X008646Y022800D01*
X008571Y022875D01*
X008421Y022875D01*
X008346Y022800D01*
X008346Y022500D01*
X008186Y022500D02*
X008111Y022425D01*
X007961Y022425D01*
X007886Y022500D01*
X007886Y022650D02*
X008036Y022725D01*
X008111Y022725D01*
X008186Y022650D01*
X008186Y022500D01*
X007886Y022650D02*
X007886Y022875D01*
X008186Y022875D01*
X007725Y022425D02*
X007425Y022425D01*
X007575Y022425D02*
X007575Y022875D01*
X007425Y022725D01*
X007575Y021375D02*
X007575Y020925D01*
X007425Y020925D02*
X007725Y020925D01*
X007886Y020925D02*
X008186Y020925D01*
X008036Y020925D02*
X008036Y021375D01*
X007886Y021225D01*
X007575Y021375D02*
X007425Y021225D01*
X008346Y021300D02*
X008346Y021000D01*
X008646Y021300D01*
X008646Y021000D01*
X008571Y020925D01*
X008421Y020925D01*
X008346Y021000D01*
X008346Y021300D02*
X008421Y021375D01*
X008571Y021375D01*
X008646Y021300D01*
X008806Y021375D02*
X008806Y020925D01*
X008806Y021075D02*
X009032Y021225D01*
X008806Y021075D02*
X009032Y020925D01*
X008656Y019875D02*
X008656Y019425D01*
X008656Y019575D02*
X008881Y019725D01*
X008656Y019575D02*
X008881Y019425D01*
X008496Y019425D02*
X008195Y019425D01*
X008496Y019725D01*
X008496Y019800D01*
X008421Y019875D01*
X008270Y019875D01*
X008195Y019800D01*
X008035Y019800D02*
X008035Y019725D01*
X007960Y019650D01*
X007810Y019650D01*
X007735Y019725D01*
X007735Y019800D01*
X007810Y019875D01*
X007960Y019875D01*
X008035Y019800D01*
X007960Y019650D02*
X008035Y019575D01*
X008035Y019500D01*
X007960Y019425D01*
X007810Y019425D01*
X007735Y019500D01*
X007735Y019575D01*
X007810Y019650D01*
X007771Y018375D02*
X007921Y018375D01*
X007996Y018300D01*
X007996Y018225D01*
X007921Y018150D01*
X007996Y018075D01*
X007996Y018000D01*
X007921Y017925D01*
X007771Y017925D01*
X007696Y018000D01*
X007846Y018150D02*
X007921Y018150D01*
X007696Y018300D02*
X007771Y018375D01*
X008156Y018300D02*
X008231Y018375D01*
X008381Y018375D01*
X008456Y018300D01*
X008456Y018225D01*
X008381Y018150D01*
X008456Y018075D01*
X008456Y018000D01*
X008381Y017925D01*
X008231Y017925D01*
X008156Y018000D01*
X008306Y018150D02*
X008381Y018150D01*
X008616Y018075D02*
X008842Y018225D01*
X008616Y018075D02*
X008842Y017925D01*
X008616Y017925D02*
X008616Y018375D01*
X008730Y016875D02*
X008655Y016800D01*
X008730Y016875D02*
X008880Y016875D01*
X008955Y016800D01*
X008955Y016725D01*
X008655Y016425D01*
X008955Y016425D01*
X008496Y016425D02*
X008271Y016575D01*
X008496Y016725D01*
X008271Y016875D02*
X008271Y016425D01*
X008111Y016425D02*
X007811Y016425D01*
X008111Y016725D01*
X008111Y016800D01*
X008036Y016875D01*
X007886Y016875D01*
X007811Y016800D01*
X011550Y019046D02*
X012000Y019046D01*
X012000Y018896D02*
X012000Y019196D01*
X011925Y019357D02*
X011625Y019657D01*
X011925Y019657D01*
X012000Y019582D01*
X012000Y019432D01*
X011925Y019357D01*
X011625Y019357D01*
X011550Y019432D01*
X011550Y019582D01*
X011625Y019657D01*
X011625Y019817D02*
X011550Y019892D01*
X011550Y020042D01*
X011625Y020117D01*
X011925Y019817D01*
X012000Y019892D01*
X012000Y020042D01*
X011925Y020117D01*
X011625Y020117D01*
X011625Y019817D02*
X011925Y019817D01*
X011550Y019046D02*
X011700Y018896D01*
X013050Y019011D02*
X013050Y019161D01*
X013125Y019236D01*
X013200Y019236D01*
X013275Y019161D01*
X013350Y019236D01*
X013425Y019236D01*
X013500Y019161D01*
X013500Y019011D01*
X013425Y018936D01*
X013275Y019086D02*
X013275Y019161D01*
X013350Y019396D02*
X013200Y019621D01*
X013125Y019780D02*
X013050Y019855D01*
X013050Y020005D01*
X013125Y020080D01*
X013200Y020080D01*
X013275Y020005D01*
X013350Y020080D01*
X013425Y020080D01*
X013500Y020005D01*
X013500Y019855D01*
X013425Y019780D01*
X013500Y019621D02*
X013350Y019396D01*
X013500Y019396D02*
X013050Y019396D01*
X013050Y019011D02*
X013125Y018936D01*
X013275Y019930D02*
X013275Y020005D01*
X015689Y018300D02*
X015764Y018375D01*
X015914Y018375D01*
X015989Y018300D01*
X015989Y018225D01*
X015689Y017925D01*
X015989Y017925D01*
X016149Y017925D02*
X016149Y018375D01*
X016374Y018225D02*
X016149Y018075D01*
X016374Y017925D01*
X016533Y017925D02*
X016833Y018225D01*
X016833Y018300D01*
X016758Y018375D01*
X016608Y018375D01*
X016533Y018300D01*
X016533Y017925D02*
X016833Y017925D01*
X016731Y016875D02*
X016731Y016425D01*
X016731Y016575D02*
X016957Y016725D01*
X016731Y016575D02*
X016957Y016425D01*
X016571Y016500D02*
X016571Y016575D01*
X016496Y016650D01*
X016271Y016650D01*
X016271Y016500D01*
X016346Y016425D01*
X016496Y016425D01*
X016571Y016500D01*
X016421Y016800D02*
X016271Y016650D01*
X016421Y016800D02*
X016571Y016875D01*
X016111Y016425D02*
X015811Y016425D01*
X015961Y016425D02*
X015961Y016875D01*
X015811Y016725D01*
X015771Y019425D02*
X016071Y019425D01*
X015921Y019425D02*
X015921Y019875D01*
X015771Y019725D01*
X016232Y019800D02*
X016307Y019875D01*
X016457Y019875D01*
X016532Y019800D01*
X016532Y019725D01*
X016457Y019650D01*
X016532Y019575D01*
X016532Y019500D01*
X016457Y019425D01*
X016307Y019425D01*
X016232Y019500D01*
X016382Y019650D02*
X016457Y019650D01*
X016692Y019500D02*
X016992Y019800D01*
X016992Y019500D01*
X016917Y019425D01*
X016767Y019425D01*
X016692Y019500D01*
X016692Y019800D01*
X016767Y019875D01*
X016917Y019875D01*
X016992Y019800D01*
X024061Y016550D02*
X024136Y016625D01*
X024286Y016625D01*
X024361Y016550D01*
X024361Y016475D01*
X024286Y016400D01*
X024361Y016325D01*
X024361Y016250D01*
X024286Y016175D01*
X024136Y016175D01*
X024061Y016250D01*
X024211Y016400D02*
X024286Y016400D01*
X024521Y016325D02*
X024746Y016475D01*
X024905Y016550D02*
X024980Y016625D01*
X025130Y016625D01*
X025205Y016550D01*
X025205Y016475D01*
X025130Y016400D01*
X025205Y016325D01*
X025205Y016250D01*
X025130Y016175D01*
X024980Y016175D01*
X024905Y016250D01*
X024746Y016175D02*
X024521Y016325D01*
X024521Y016175D02*
X024521Y016625D01*
X025055Y016400D02*
X025130Y016400D01*
X025180Y018185D02*
X024880Y018185D01*
X024805Y018260D01*
X024805Y018410D01*
X024880Y018485D01*
X025030Y018485D02*
X025030Y018335D01*
X025030Y018485D02*
X025180Y018485D01*
X025255Y018410D01*
X025255Y018260D01*
X025180Y018185D01*
X025255Y018645D02*
X024955Y018645D01*
X024805Y018796D01*
X024955Y018946D01*
X025255Y018946D01*
X025255Y019106D02*
X025255Y019256D01*
X025255Y019181D02*
X024805Y019181D01*
X024805Y019106D02*
X024805Y019256D01*
X024805Y019413D02*
X025255Y019713D01*
X024805Y019713D01*
X024805Y019413D02*
X025255Y019413D01*
X025700Y019671D02*
X025700Y019971D01*
X025925Y019821D02*
X025925Y019671D01*
X025850Y019511D02*
X026150Y019511D01*
X026150Y019285D01*
X026075Y019210D01*
X025850Y019210D01*
X026150Y019050D02*
X026150Y018750D01*
X026150Y018900D02*
X025700Y018900D01*
X025850Y018750D01*
X025030Y018645D02*
X025030Y018946D01*
X025700Y019671D02*
X026150Y019671D01*
X025255Y020333D02*
X025255Y020634D01*
X025255Y020333D02*
X024805Y020333D01*
X024130Y011125D02*
X023980Y011125D01*
X023905Y011050D01*
X023746Y010975D02*
X023521Y010825D01*
X023746Y010675D01*
X023905Y010750D02*
X023980Y010675D01*
X024130Y010675D01*
X024205Y010750D01*
X024205Y010825D01*
X024130Y010900D01*
X024055Y010900D01*
X024130Y010900D02*
X024205Y010975D01*
X024205Y011050D01*
X024130Y011125D01*
X023521Y011125D02*
X023521Y010675D01*
X023361Y010750D02*
X023286Y010675D01*
X023136Y010675D01*
X023061Y010750D01*
X023211Y010900D02*
X023286Y010900D01*
X023361Y010825D01*
X023361Y010750D01*
X023286Y010900D02*
X023361Y010975D01*
X023361Y011050D01*
X023286Y011125D01*
X023136Y011125D01*
X023061Y011050D01*
X024880Y009134D02*
X025030Y009134D01*
X025105Y009059D01*
X025105Y008833D01*
X025255Y008833D02*
X024805Y008833D01*
X024805Y009059D01*
X024880Y009134D01*
X025105Y008984D02*
X025255Y009134D01*
X025775Y008565D02*
X025775Y008265D01*
X026225Y008265D01*
X026225Y008104D02*
X025925Y008104D01*
X026000Y008265D02*
X026000Y008415D01*
X026225Y008104D02*
X026225Y007879D01*
X026150Y007804D01*
X025925Y007804D01*
X026225Y007644D02*
X026225Y007344D01*
X026225Y007494D02*
X025775Y007494D01*
X025925Y007344D01*
X025255Y007446D02*
X024955Y007446D01*
X024805Y007296D01*
X024955Y007145D01*
X025255Y007145D01*
X025180Y006985D02*
X025030Y006985D01*
X025030Y006835D01*
X024880Y006685D02*
X025180Y006685D01*
X025255Y006760D01*
X025255Y006910D01*
X025180Y006985D01*
X025030Y007145D02*
X025030Y007446D01*
X025255Y007606D02*
X025255Y007756D01*
X025255Y007681D02*
X024805Y007681D01*
X024805Y007606D02*
X024805Y007756D01*
X024805Y007913D02*
X025255Y008213D01*
X024805Y008213D01*
X024805Y007913D02*
X025255Y007913D01*
X024880Y006985D02*
X024805Y006910D01*
X024805Y006760D01*
X024880Y006685D01*
X024175Y003747D02*
X023875Y003747D01*
X024175Y003447D01*
X024250Y003522D01*
X024250Y003672D01*
X024175Y003747D01*
X024175Y003447D02*
X023875Y003447D01*
X023800Y003522D01*
X023800Y003672D01*
X023875Y003747D01*
X023875Y003287D02*
X024175Y002987D01*
X024250Y003062D01*
X024250Y003212D01*
X024175Y003287D01*
X023875Y003287D01*
X023800Y003212D01*
X023800Y003062D01*
X023875Y002987D01*
X024175Y002987D01*
X024175Y002827D02*
X024250Y002752D01*
X024250Y002601D01*
X024175Y002526D01*
X024025Y002676D02*
X024025Y002752D01*
X024100Y002827D01*
X024175Y002827D01*
X024025Y002752D02*
X023950Y002827D01*
X023875Y002827D01*
X023800Y002752D01*
X023800Y002601D01*
X023875Y002526D01*
X022875Y002526D02*
X022875Y002827D01*
X022875Y002676D02*
X022425Y002676D01*
X022575Y002526D01*
X022575Y002987D02*
X022500Y002987D01*
X022425Y003062D01*
X022425Y003212D01*
X022500Y003287D01*
X022575Y003287D01*
X022650Y003212D01*
X022650Y003062D01*
X022575Y002987D01*
X022650Y003062D02*
X022725Y002987D01*
X022800Y002987D01*
X022875Y003062D01*
X022875Y003212D01*
X022800Y003287D01*
X022725Y003287D01*
X022650Y003212D01*
X022800Y003447D02*
X022500Y003447D01*
X022425Y003522D01*
X022425Y003672D01*
X022500Y003747D01*
X022800Y003447D01*
X022875Y003522D01*
X022875Y003672D01*
X022800Y003747D01*
X022500Y003747D01*
X021500Y003705D02*
X021500Y003555D01*
X021425Y003480D01*
X021125Y003780D01*
X021425Y003780D01*
X021500Y003705D01*
X021425Y003480D02*
X021125Y003480D01*
X021050Y003555D01*
X021050Y003705D01*
X021125Y003780D01*
X021125Y003319D02*
X021425Y003019D01*
X021500Y003094D01*
X021500Y003244D01*
X021425Y003319D01*
X021125Y003319D01*
X021050Y003244D01*
X021050Y003094D01*
X021125Y003019D01*
X021425Y003019D01*
X021425Y002859D02*
X021350Y002859D01*
X021275Y002784D01*
X021275Y002709D01*
X021275Y002784D02*
X021200Y002859D01*
X021125Y002859D01*
X021050Y002784D01*
X021050Y002634D01*
X021125Y002559D01*
X021425Y002559D02*
X021500Y002634D01*
X021500Y002784D01*
X021425Y002859D01*
X020150Y002710D02*
X020075Y002710D01*
X019775Y003011D01*
X019700Y003011D01*
X019700Y002710D01*
X019700Y002475D02*
X019925Y002250D01*
X019925Y002550D01*
X020150Y002475D02*
X019700Y002475D01*
X019850Y003171D02*
X019850Y003396D01*
X019925Y003471D01*
X020150Y003471D01*
X020150Y003171D02*
X019850Y003171D01*
X017275Y003171D02*
X016975Y003171D01*
X016975Y003396D01*
X017050Y003471D01*
X017275Y003471D01*
X017200Y003011D02*
X017275Y002936D01*
X017275Y002785D01*
X017200Y002710D01*
X017125Y002710D01*
X017050Y002785D01*
X017050Y002936D01*
X017125Y003011D01*
X017200Y003011D01*
X017050Y002936D02*
X016975Y003011D01*
X016900Y003011D01*
X016825Y002936D01*
X016825Y002785D01*
X016900Y002710D01*
X016975Y002710D01*
X017050Y002785D01*
X017125Y002550D02*
X017050Y002475D01*
X017050Y002250D01*
X017200Y002250D01*
X017275Y002325D01*
X017275Y002475D01*
X017200Y002550D01*
X017125Y002550D01*
X016900Y002400D02*
X017050Y002250D01*
X016900Y002400D02*
X016825Y002550D01*
X012346Y001875D02*
X012346Y001650D01*
X012346Y001875D02*
X012271Y001950D01*
X012046Y001950D01*
X012046Y001650D01*
X011886Y001725D02*
X011811Y001650D01*
X011660Y001650D01*
X011585Y001725D01*
X011585Y001800D01*
X011660Y001875D01*
X011811Y001875D01*
X011886Y001800D01*
X011886Y001725D01*
X011811Y001875D02*
X011886Y001950D01*
X011886Y002025D01*
X011811Y002100D01*
X011660Y002100D01*
X011585Y002025D01*
X011585Y001950D01*
X011660Y001875D01*
X011425Y001800D02*
X011350Y001875D01*
X011125Y001875D01*
X011125Y001725D01*
X011200Y001650D01*
X011350Y001650D01*
X011425Y001725D01*
X011425Y001800D01*
X011275Y002025D02*
X011125Y001875D01*
X011275Y002025D02*
X011425Y002100D01*
X008957Y004550D02*
X008731Y004700D01*
X008957Y004850D01*
X008731Y005000D02*
X008731Y004550D01*
X008571Y004625D02*
X008571Y004700D01*
X008496Y004775D01*
X008421Y004775D01*
X008496Y004775D02*
X008571Y004850D01*
X008571Y004925D01*
X008496Y005000D01*
X008346Y005000D01*
X008271Y004925D01*
X008111Y004925D02*
X008111Y004850D01*
X008036Y004775D01*
X008111Y004700D01*
X008111Y004625D01*
X008036Y004550D01*
X007886Y004550D01*
X007811Y004625D01*
X007961Y004775D02*
X008036Y004775D01*
X008111Y004925D02*
X008036Y005000D01*
X007886Y005000D01*
X007811Y004925D01*
X008271Y004625D02*
X008346Y004550D01*
X008496Y004550D01*
X008571Y004625D01*
X008571Y006050D02*
X008271Y006050D01*
X008571Y006350D01*
X008571Y006425D01*
X008496Y006500D01*
X008346Y006500D01*
X008271Y006425D01*
X008111Y006425D02*
X008111Y006350D01*
X008036Y006275D01*
X007886Y006275D01*
X007811Y006350D01*
X007811Y006425D01*
X007886Y006500D01*
X008036Y006500D01*
X008111Y006425D01*
X008036Y006275D02*
X008111Y006200D01*
X008111Y006125D01*
X008036Y006050D01*
X007886Y006050D01*
X007811Y006125D01*
X007811Y006200D01*
X007886Y006275D01*
X008731Y006200D02*
X008957Y006350D01*
X008731Y006200D02*
X008957Y006050D01*
X008731Y006050D02*
X008731Y006500D01*
X008781Y007550D02*
X008706Y007625D01*
X009006Y007925D01*
X009006Y007625D01*
X008931Y007550D01*
X008781Y007550D01*
X008706Y007625D02*
X008706Y007925D01*
X008781Y008000D01*
X008931Y008000D01*
X009006Y007925D01*
X009166Y008000D02*
X009166Y007550D01*
X009166Y007700D02*
X009391Y007850D01*
X009166Y007700D02*
X009391Y007550D01*
X008546Y007550D02*
X008245Y007550D01*
X008396Y007550D02*
X008396Y008000D01*
X008245Y007850D01*
X008085Y007550D02*
X007785Y007550D01*
X007935Y007550D02*
X007935Y008000D01*
X007785Y007850D01*
X007810Y009050D02*
X007810Y009500D01*
X007660Y009350D01*
X007660Y009050D02*
X007960Y009050D01*
X008120Y009125D02*
X008195Y009050D01*
X008346Y009050D01*
X008421Y009125D01*
X008421Y009275D01*
X008346Y009350D01*
X008271Y009350D01*
X008120Y009275D01*
X008120Y009500D01*
X008421Y009500D01*
X008581Y009425D02*
X008656Y009500D01*
X008806Y009500D01*
X008881Y009425D01*
X008581Y009125D01*
X008656Y009050D01*
X008806Y009050D01*
X008881Y009125D01*
X008881Y009425D01*
X009041Y009500D02*
X009041Y009050D01*
X009041Y009200D02*
X009266Y009350D01*
X009041Y009200D02*
X009266Y009050D01*
X008581Y009125D02*
X008581Y009425D01*
X008655Y010425D02*
X008955Y010725D01*
X008955Y010800D01*
X008880Y010875D01*
X008730Y010875D01*
X008655Y010800D01*
X008496Y010725D02*
X008271Y010575D01*
X008496Y010425D01*
X008655Y010425D02*
X008955Y010425D01*
X008271Y010425D02*
X008271Y010875D01*
X008111Y010800D02*
X008036Y010875D01*
X007886Y010875D01*
X007811Y010800D01*
X008111Y010800D02*
X008111Y010725D01*
X007811Y010425D01*
X008111Y010425D01*
X011425Y008258D02*
X011425Y008108D01*
X011500Y008033D01*
X011800Y008033D01*
X011500Y008333D01*
X011800Y008333D01*
X011875Y008258D01*
X011875Y008108D01*
X011800Y008033D01*
X011800Y007873D02*
X011500Y007873D01*
X011800Y007572D01*
X011875Y007647D01*
X011875Y007798D01*
X011800Y007873D01*
X011500Y007873D02*
X011425Y007798D01*
X011425Y007647D01*
X011500Y007572D01*
X011800Y007572D01*
X011875Y007412D02*
X011875Y007112D01*
X011875Y007262D02*
X011425Y007262D01*
X011575Y007112D01*
X011425Y008258D02*
X011500Y008333D01*
X012925Y008258D02*
X012925Y008108D01*
X013000Y008033D01*
X013075Y007874D02*
X013225Y007649D01*
X013375Y007874D01*
X013300Y008033D02*
X013375Y008108D01*
X013375Y008258D01*
X013300Y008333D01*
X013225Y008333D01*
X013150Y008258D01*
X013150Y008183D01*
X013150Y008258D02*
X013075Y008333D01*
X013000Y008333D01*
X012925Y008258D01*
X012925Y007649D02*
X013375Y007649D01*
X013300Y007489D02*
X013375Y007414D01*
X013375Y007264D01*
X013300Y007189D01*
X013150Y007339D02*
X013150Y007414D01*
X013225Y007489D01*
X013300Y007489D01*
X013150Y007414D02*
X013075Y007489D01*
X013000Y007489D01*
X012925Y007414D01*
X012925Y007264D01*
X013000Y007189D01*
X015689Y008925D02*
X015989Y009225D01*
X015989Y009300D01*
X015914Y009375D01*
X015764Y009375D01*
X015689Y009300D01*
X015689Y008925D02*
X015989Y008925D01*
X016149Y008925D02*
X016149Y009375D01*
X016374Y009225D02*
X016149Y009075D01*
X016374Y008925D01*
X016533Y008925D02*
X016833Y009225D01*
X016833Y009300D01*
X016758Y009375D01*
X016608Y009375D01*
X016533Y009300D01*
X016533Y008925D02*
X016833Y008925D01*
X016806Y007875D02*
X016957Y007875D01*
X017032Y007800D01*
X016731Y007500D01*
X016806Y007425D01*
X016957Y007425D01*
X017032Y007500D01*
X017032Y007800D01*
X016806Y007875D02*
X016731Y007800D01*
X016731Y007500D01*
X016571Y007500D02*
X016496Y007425D01*
X016346Y007425D01*
X016271Y007500D01*
X016111Y007425D02*
X015811Y007425D01*
X015961Y007425D02*
X015961Y007875D01*
X015811Y007725D01*
X016271Y007800D02*
X016346Y007875D01*
X016496Y007875D01*
X016571Y007800D01*
X016571Y007725D01*
X016496Y007650D01*
X016571Y007575D01*
X016571Y007500D01*
X016496Y007650D02*
X016421Y007650D01*
X016450Y010425D02*
X016300Y010425D01*
X016225Y010500D01*
X016225Y010650D01*
X016450Y010650D01*
X016525Y010575D01*
X016525Y010500D01*
X016450Y010425D01*
X016685Y010425D02*
X016685Y010875D01*
X016525Y010875D02*
X016375Y010800D01*
X016225Y010650D01*
X016065Y010425D02*
X015764Y010425D01*
X015914Y010425D02*
X015914Y010875D01*
X015764Y010725D01*
X016685Y010575D02*
X016910Y010725D01*
X016685Y010575D02*
X016910Y010425D01*
X028425Y003806D02*
X028875Y003806D01*
X028725Y003806D02*
X028575Y004032D01*
X028725Y003806D02*
X028875Y004032D01*
X028800Y003646D02*
X028500Y003646D01*
X028800Y003346D01*
X028875Y003421D01*
X028875Y003571D01*
X028800Y003646D01*
X028800Y003346D02*
X028500Y003346D01*
X028425Y003421D01*
X028425Y003571D01*
X028500Y003646D01*
X028875Y003186D02*
X028875Y002886D01*
X028875Y003036D02*
X028425Y003036D01*
X028575Y002886D01*
X028875Y002725D02*
X028875Y002425D01*
X028875Y002575D02*
X028425Y002575D01*
X028575Y002425D01*
D27*
X031900Y001525D03*
X031900Y025650D03*
X001650Y025650D03*
X001650Y001650D03*
D28*
X001890Y005525D02*
X002410Y005525D01*
X002410Y006525D02*
X001890Y006525D01*
X001890Y007525D02*
X002410Y007525D01*
X002410Y008525D02*
X001890Y008525D01*
X004890Y008525D02*
X005410Y008525D01*
X005410Y007525D02*
X004890Y007525D01*
X004890Y006525D02*
X005410Y006525D01*
X005410Y005525D02*
X004890Y005525D01*
X004890Y018900D02*
X005410Y018900D01*
X005410Y019900D02*
X004890Y019900D01*
X004890Y020900D02*
X005410Y020900D01*
X005410Y021900D02*
X004890Y021900D01*
X002410Y021900D02*
X001890Y021900D01*
X001890Y020900D02*
X002410Y020900D01*
X002410Y019900D02*
X001890Y019900D01*
X001890Y018900D02*
X002410Y018900D01*
X022650Y018160D02*
X022650Y017640D01*
X023650Y017640D02*
X023650Y018160D01*
X023650Y020640D02*
X023650Y021160D01*
X022650Y021160D02*
X022650Y020640D01*
X022650Y009660D02*
X022650Y009140D01*
X023650Y009140D02*
X023650Y009660D01*
X023650Y006660D02*
X023650Y006140D01*
X022650Y006140D02*
X022650Y006660D01*
D29*
X022650Y006140D01*
X023650Y006140D02*
X023650Y006660D01*
X023650Y009140D02*
X023650Y009660D01*
X022650Y009660D02*
X022650Y009140D01*
X022650Y017640D02*
X022650Y018160D01*
X023650Y018160D02*
X023650Y017640D01*
X023650Y020640D02*
X023650Y021160D01*
X022650Y021160D02*
X022650Y020640D01*
X005410Y020900D02*
X004890Y020900D01*
X004890Y019900D02*
X005410Y019900D01*
X005410Y018900D02*
X004890Y018900D01*
X002410Y018900D02*
X001890Y018900D01*
X001890Y019900D02*
X002410Y019900D01*
X002410Y020900D02*
X001890Y020900D01*
X001890Y021900D02*
X002410Y021900D01*
X004890Y021900D02*
X005410Y021900D01*
X005410Y008525D02*
X004890Y008525D01*
X004890Y007525D02*
X005410Y007525D01*
X005410Y006525D02*
X004890Y006525D01*
X004890Y005525D02*
X005410Y005525D01*
X002410Y005525D02*
X001890Y005525D01*
X001890Y006525D02*
X002410Y006525D01*
X002410Y007525D02*
X001890Y007525D01*
X001890Y008525D02*
X002410Y008525D01*
M02*
